<svg width="1280" height="640" viewBox="0 0 1280 640" fill="none" xmlns="http://www.w3.org/2000/svg">
  <rect width="1280" height="640" rx="40" fill="#111827"/>
  <rect x="64" y="64" width="1152" height="512" rx="28" fill="#F8FAFC"/>
  <rect x="64" y="64" width="1152" height="512" rx="28" stroke="#D7DEE8" stroke-width="2"/>
  <rect x="108" y="104" width="1064" height="432" rx="22" fill="#EAF0F7"/>
  <rect x="132" y="128" width="1016" height="384" rx="18" fill="#FFFFFF" stroke="#D7DEE8"/>
  <rect x="164" y="156" width="52" height="52" rx="13" fill="#2563EB"/>
  <text x="190" y="191" text-anchor="middle" font-family="Segoe UI, Arial, sans-serif" font-size="28" font-weight="700" fill="white">M</text>
  <text x="236" y="177" font-family="Segoe UI, Arial, sans-serif" font-size="24" font-weight="700" fill="#111827">MiniLauncher</text>
  <text x="236" y="200" font-family="Segoe UI, Arial, sans-serif" font-size="14" fill="#64748B">Offline Windows launcher - fast, local, portable</text>
  <rect x="164" y="236" width="952" height="64" rx="14" fill="#F1F5F9" stroke="#D7DEE8"/>
  <circle cx="197" cy="268" r="10" stroke="#64748B" stroke-width="4"/>
  <path d="M205 276L216 287" stroke="#64748B" stroke-width="4" stroke-linecap="round"/>
  <text x="240" y="275" font-family="Segoe UI, Arial, sans-serif" font-size="22" fill="#94A3B8">Search apps, folders, shortcuts...</text>
  <rect x="1048" y="252" width="40" height="32" rx="9" fill="#DBEAFE"/>
  <text x="1068" y="274" text-anchor="middle" font-family="Segoe UI, Arial, sans-serif" font-size="14" font-weight="700" fill="#2563EB">12</text>
  <g>
    <rect x="164" y="336" width="154" height="142" rx="15" fill="#FFFFFF" stroke="#D7DEE8"/>
    <rect x="184" y="356" width="54" height="22" rx="8" fill="#DBEAFE"/>
    <text x="211" y="371" text-anchor="middle" font-family="Segoe UI, Arial, sans-serif" font-size="12" font-weight="700" fill="#2563EB">APP</text>
    <rect x="216" y="396" width="50" height="50" rx="12" fill="#14B8A6"/>
    <text x="241" y="430" text-anchor="middle" font-family="Segoe UI, Arial, sans-serif" font-size="25" font-weight="700" fill="white">D</text>
    <text x="241" y="464" text-anchor="middle" font-family="Segoe UI, Arial, sans-serif" font-size="18" font-weight="700" fill="#111827">Dev Tools</text>
  </g>
  <g>
    <rect x="344" y="336" width="154" height="142" rx="15" fill="#FFFFFF" stroke="#D7DEE8"/>
    <rect x="364" y="356" width="72" height="22" rx="8" fill="#FEF3C7"/>
    <text x="400" y="371" text-anchor="middle" font-family="Segoe UI, Arial, sans-serif" font-size="12" font-weight="700" fill="#B45309">FOLDER</text>
    <rect x="396" y="396" width="50" height="50" rx="12" fill="#F59E0B"/>
    <text x="421" y="430" text-anchor="middle" font-family="Segoe UI, Arial, sans-serif" font-size="25" font-weight="700" fill="white">P</text>
    <text x="421" y="464" text-anchor="middle" font-family="Segoe UI, Arial, sans-serif" font-size="18" font-weight="700" fill="#111827">Projects</text>
  </g>
  <g>
    <rect x="524" y="336" width="154" height="142" rx="15" fill="#FFFFFF" stroke="#D7DEE8"/>
    <rect x="544" y="356" width="54" height="22" rx="8" fill="#DCFCE7"/>
    <text x="571" y="371" text-anchor="middle" font-family="Segoe UI, Arial, sans-serif" font-size="12" font-weight="700" fill="#15803D">APP</text>
    <rect x="576" y="396" width="50" height="50" rx="12" fill="#8B5CF6"/>
    <text x="601" y="430" text-anchor="middle" font-family="Segoe UI, Arial, sans-serif" font-size="25" font-weight="700" fill="white">S</text>
    <text x="601" y="464" text-anchor="middle" font-family="Segoe UI, Arial, sans-serif" font-size="18" font-weight="700" fill="#111827">Store</text>
  </g>
  <rect x="732" y="344" width="358" height="118" rx="16" fill="#111827"/>
  <text x="764" y="384" font-family="Segoe UI, Arial, sans-serif" font-size="18" font-weight="700" fill="#F8FAFC">Built for local workflows</text>
  <text x="764" y="418" font-family="Segoe UI, Arial, sans-serif" font-size="15" fill="#CBD5E1">Hotkey launch, tray mode, offline store,</text>
  <text x="764" y="442" font-family="Segoe UI, Arial, sans-serif" font-size="15" fill="#CBD5E1">drag-and-drop pinning, portable release.</text>
  <circle cx="1072" cy="169" r="7" fill="#22C55E"/>
  <circle cx="1096" cy="169" r="7" fill="#F59E0B"/>
  <circle cx="1120" cy="169" r="7" fill="#EF4444"/>
</svg>
